# Blender v2.78 (sub 0) OBJ File: 'flag.blend'
# www.blender.org
mtllib flag.mtl
o Cylinder
v -0.000000 0.020548 -0.054999
v 0.000000 0.993478 -0.054999
v 0.010730 0.020548 -0.053942
v 0.010730 0.993478 -0.053942
v 0.021047 0.020548 -0.050813
v 0.021047 0.993478 -0.050813
v 0.030556 0.020548 -0.045730
v 0.030556 0.993478 -0.045730
v 0.038890 0.020548 -0.038890
v 0.038891 0.993478 -0.038890
v 0.045730 0.020548 -0.030556
v 0.045730 0.993478 -0.030556
v 0.050813 0.020548 -0.021047
v 0.050813 0.993478 -0.021047
v 0.053942 0.020548 -0.010730
v 0.053942 0.993478 -0.010730
v 0.054999 0.020548 -0.000000
v 0.054999 0.993478 -0.000000
v 0.053942 0.020548 0.010730
v 0.053943 0.993478 0.010730
v 0.050813 0.020548 0.021047
v 0.050813 0.993478 0.021047
v 0.045730 0.020548 0.030556
v 0.045730 0.993478 0.030556
v 0.038890 0.020548 0.038890
v 0.038890 0.993478 0.038890
v 0.030556 0.020548 0.045730
v 0.030556 0.993478 0.045730
v 0.021047 0.020548 0.050813
v 0.021047 0.993478 0.050813
v 0.010730 0.020548 0.053942
v 0.010730 0.993478 0.053942
v -0.000000 0.020548 0.054999
v -0.000000 0.993478 0.054999
v -0.010730 0.020548 0.053942
v -0.010730 0.993478 0.053943
v -0.021047 0.020548 0.050813
v -0.021048 0.993478 0.050813
v -0.030556 0.020548 0.045730
v -0.030556 0.993478 0.045730
v -0.038890 0.020548 0.038890
v -0.038890 0.993478 0.038890
v -0.045730 0.020548 0.030556
v -0.045730 0.993478 0.030556
v -0.050813 0.020548 0.021047
v -0.050813 0.993478 0.021047
v -0.053942 0.020548 0.010730
v -0.053943 0.993478 0.010730
v -0.054999 0.020548 -0.000000
v -0.054999 0.993478 -0.000000
v -0.053942 0.020548 -0.010730
v -0.053942 0.993478 -0.010730
v -0.050813 0.020548 -0.021047
v -0.050813 0.993478 -0.021047
v -0.045730 0.020548 -0.030556
v -0.045730 0.993478 -0.030556
v -0.038890 0.020548 -0.038890
v -0.038891 0.993478 -0.038890
v -0.030556 0.020548 -0.045730
v -0.030556 0.993478 -0.045730
v -0.021047 0.020548 -0.050813
v -0.021047 0.993478 -0.050813
v -0.010730 0.020548 -0.053943
v -0.010730 0.993478 -0.053942
v 0.054999 0.507013 -0.000000
v 0.618941 0.993478 -0.034178
v 0.618941 0.507013 -0.034178
v 0.618941 0.993478 0.034178
v 0.618941 0.507013 0.034178
vt 0.0504 1.0000
vt 0.0657 0.0000
vt 0.0504 0.0000
vt 0.1616 1.0000
vt 0.1632 1.0000
vt 0.1632 0.5000
vt 0.1495 1.0000
vt 0.1570 1.0000
vt 0.0239 1.0000
vt 0.0975 0.0000
vt 0.0016 0.0000
vt 0.1616 0.0000
vt 0.0657 1.0000
vt 0.0816 0.0000
vt 0.0363 0.0000
vt 0.0239 1.0000
vt 0.0239 0.0000
vt 0.0138 0.0000
vt 0.0062 1.0000
vt 0.0062 0.0000
vt 0.0016 0.0000
vt 0.0000 0.0000
vt 0.0016 1.0000
vt 0.0016 1.0000
vt 0.0062 0.0000
vt 0.0138 1.0000
vt 0.0138 0.0000
vt 0.0239 0.0000
vt 0.0363 0.0000
vt 0.0504 1.0000
vt 0.0504 0.0000
vt 0.0657 1.0000
vt 0.0657 0.0000
vt 0.0816 0.0000
vt 0.0975 1.0000
vt 0.1128 1.0000
vt 0.1128 0.0000
vt 0.1269 0.0000
vt 0.1393 0.0000
vt 0.1269 1.0000
vt 0.1495 0.0000
vt 0.1393 1.0000
vt 0.1570 0.0000
vt 0.1616 0.0000
vt 0.1632 0.0000
vt 0.1570 1.0000
vt 0.1570 0.0000
vt 0.1495 1.0000
vt 0.1495 0.0000
vt 0.1393 1.0000
vt 0.1393 0.0000
vt 0.1269 1.0000
vt 0.1269 0.0000
vt 0.1128 1.0000
vt 0.1128 0.0000
vt 0.0975 1.0000
vt 0.0975 0.0000
vt 0.0816 1.0000
vt 0.1616 1.0000
vt 0.0363 1.0000
vt 0.0138 1.0000
vt 0.0000 1.0000
vt 0.0062 1.0000
vt 0.0363 1.0000
vt 0.0816 1.0000
vt 1.0000 0.5000
vt 1.0000 1.0000
vt 1.0000 0.5000
vt 1.0000 1.0000
vn -0.2903 0.0000 -0.9569
vn 0.9952 0.0000 -0.0980
vn 0.0000 1.0000 0.0000
vn 0.0000 -1.0000 0.0000
vn -0.0980 0.0000 -0.9952
vn -0.4714 0.0000 -0.8819
vn -0.6344 -0.0000 -0.7730
vn -0.7730 -0.0000 -0.6344
vn -0.8819 0.0000 -0.4714
vn -0.9569 0.0000 -0.2903
vn -0.9952 0.0000 -0.0980
vn -0.9952 -0.0000 0.0980
vn -0.9569 0.0000 0.2903
vn -0.8819 0.0000 0.4714
vn -0.7730 0.0000 0.6344
vn -0.6344 0.0000 0.7730
vn -0.4714 -0.0000 0.8819
vn -0.2903 -0.0000 0.9569
vn -0.0980 -0.0000 0.9952
vn 0.0980 0.0000 0.9952
vn 0.2903 -0.0000 0.9569
vn 0.4714 -0.0000 0.8819
vn 0.6344 0.0000 0.7730
vn 0.7730 -0.0000 0.6344
vn 0.8819 0.0000 0.4714
vn 0.9569 0.0000 0.2903
vn 0.9952 0.0000 0.0980
vn 0.9569 0.0000 -0.2903
vn 0.8819 -0.0000 -0.4714
vn 0.7730 -0.0000 -0.6344
vn 0.6344 -0.0000 -0.7730
vn 0.4714 -0.0000 -0.8819
vn 0.2903 0.0000 -0.9569
vn 0.0980 0.0000 -0.9952
vn 0.0000 1.0000 -0.0001
vn 0.0001 1.0000 0.0001
vn 0.0001 1.0000 0.0000
vn -0.0001 1.0000 -0.0000
vn -0.0605 0.0000 -0.9982
vn 1.0000 0.0000 0.0000
vn -0.0605 0.0000 0.9982
usemtl Material.001
s off
f 62/1/1 63/2/1 61/3/1
f 16/4/2 18/5/2 65/6/2
f 24/7/3 22/8/3 42/9/3
f 31/10/4 47/11/4 15/12/4
f 63/2/5 64/13/5 1/14/5
f 59/15/6 62/1/6 61/3/6
f 58/16/7 59/15/7 57/17/7
f 55/18/8 58/16/8 57/17/8
f 54/19/9 55/18/9 53/20/9
f 51/21/10 54/19/10 53/20/10
f 49/22/11 52/23/11 51/21/11
f 48/24/12 49/22/12 47/11/12
f 45/25/13 48/24/13 47/11/13
f 44/26/14 45/25/14 43/27/14
f 42/9/15 43/27/15 41/28/15
f 39/29/16 42/9/16 41/28/16
f 38/30/17 39/29/17 37/31/17
f 36/32/18 37/31/18 35/33/18
f 33/34/19 36/32/19 35/33/19
f 32/35/20 33/34/20 31/10/20
f 30/36/21 31/10/21 29/37/21
f 27/38/22 30/36/22 29/37/22
f 25/39/23 28/40/23 27/38/23
f 23/41/24 26/42/24 25/39/24
f 21/43/25 24/7/25 23/41/25
f 19/44/26 22/8/26 21/43/26
f 65/6/27 19/44/27 17/45/27
f 15/12/2 65/6/2 17/45/2
f 14/46/28 15/12/28 13/47/28
f 12/48/29 13/47/29 11/49/29
f 10/50/30 11/49/30 9/51/30
f 8/52/31 9/51/31 7/53/31
f 6/54/32 7/53/32 5/55/32
f 4/56/33 5/55/33 3/57/33
f 1/14/34 4/56/34 3/57/34
f 1/14/34 2/58/34 4/56/34
f 65/6/27 18/5/27 20/59/27
f 1/14/5 64/13/5 2/58/5
f 62/1/1 64/13/1 63/2/1
f 6/54/3 4/56/3 14/46/3
f 2/58/35 64/13/35 62/1/35
f 62/1/36 60/60/36 58/16/36
f 58/16/35 56/61/35 62/1/35
f 54/19/37 52/23/37 50/62/37
f 50/62/3 48/24/3 42/9/3
f 46/63/35 44/26/35 48/24/35
f 42/9/37 40/64/37 38/30/37
f 38/30/3 36/32/3 42/9/3
f 34/65/3 32/35/3 42/9/3
f 30/36/3 28/40/3 32/35/3
f 26/42/3 24/7/3 28/40/3
f 22/8/38 20/59/38 18/5/38
f 18/5/38 16/4/38 14/46/38
f 14/46/3 12/48/3 6/54/3
f 10/50/35 8/52/35 6/54/35
f 4/56/35 2/58/35 62/1/35
f 62/1/3 56/61/3 42/9/3
f 54/19/3 50/62/3 42/9/3
f 44/26/3 42/9/3 48/24/3
f 36/32/3 34/65/3 42/9/3
f 28/40/3 24/7/3 42/9/3
f 22/8/37 18/5/37 14/46/37
f 12/48/3 10/50/3 6/54/3
f 4/56/3 62/1/3 14/46/3
f 54/19/3 42/9/3 56/61/3
f 32/35/3 28/40/3 42/9/3
f 22/8/3 14/46/3 42/9/3
f 62/1/3 42/9/3 14/46/3
f 63/2/4 1/14/4 3/57/4
f 3/57/4 5/55/4 7/53/4
f 7/53/4 9/51/4 11/49/4
f 11/49/4 13/47/4 7/53/4
f 15/12/4 17/45/4 19/44/4
f 19/44/4 21/43/4 15/12/4
f 23/41/4 25/39/4 31/10/4
f 27/38/4 29/37/4 31/10/4
f 31/10/4 33/34/4 35/33/4
f 35/33/4 37/31/4 39/29/4
f 39/29/4 41/28/4 43/27/4
f 43/27/4 45/25/4 47/11/4
f 47/11/4 49/22/4 51/21/4
f 51/21/4 53/20/4 55/18/4
f 55/18/4 57/17/4 63/2/4
f 59/15/4 61/3/4 63/2/4
f 63/2/4 3/57/4 15/12/4
f 7/53/4 13/47/4 15/12/4
f 15/12/4 21/43/4 23/41/4
f 25/39/4 27/38/4 31/10/4
f 31/10/4 35/33/4 47/11/4
f 39/29/4 43/27/4 47/11/4
f 47/11/4 51/21/4 63/2/4
f 57/17/4 59/15/4 63/2/4
f 3/57/4 7/53/4 15/12/4
f 15/12/4 23/41/4 31/10/4
f 35/33/4 39/29/4 47/11/4
f 51/21/4 55/18/4 63/2/4
f 63/2/4 15/12/4 47/11/4
f 59/15/6 60/60/6 62/1/6
f 58/16/7 60/60/7 59/15/7
f 55/18/8 56/61/8 58/16/8
f 54/19/9 56/61/9 55/18/9
f 51/21/10 52/23/10 54/19/10
f 49/22/11 50/62/11 52/23/11
f 48/24/12 50/62/12 49/22/12
f 45/25/13 46/63/13 48/24/13
f 44/26/14 46/63/14 45/25/14
f 42/9/15 44/26/15 43/27/15
f 39/29/16 40/64/16 42/9/16
f 38/30/17 40/64/17 39/29/17
f 36/32/18 38/30/18 37/31/18
f 33/34/19 34/65/19 36/32/19
f 32/35/20 34/65/20 33/34/20
f 30/36/21 32/35/21 31/10/21
f 27/38/22 28/40/22 30/36/22
f 25/39/23 26/42/23 28/40/23
f 23/41/24 24/7/24 26/42/24
f 21/43/25 22/8/25 24/7/25
f 19/44/26 20/59/26 22/8/26
f 65/6/27 20/59/27 19/44/27
f 15/12/2 16/4/2 65/6/2
f 14/46/28 16/4/28 15/12/28
f 12/48/29 14/46/29 13/47/29
f 10/50/30 12/48/30 11/49/30
f 8/52/31 10/50/31 9/51/31
f 6/54/32 8/52/32 7/53/32
f 4/56/33 6/54/33 5/55/33
usemtl Material.002
f 18/5/39 67/66/39 65/6/39
f 66/67/40 69/68/40 67/66/40
f 69/68/41 18/5/41 65/6/41
f 67/66/4 69/68/4 65/6/4
f 66/67/3 18/5/3 68/69/3
f 18/5/39 66/67/39 67/66/39
f 66/67/40 68/69/40 69/68/40
f 69/68/41 68/69/41 18/5/41
