# Blender v2.78 (sub 0) OBJ File: 'level1.blend'
# www.blender.org
mtllib level1.mtl
o Cube.002
v 31.468479 0.315447 -6.044754
v 31.468479 0.715447 -6.044754
v 31.468479 0.315447 -6.444754
v 31.468479 0.715447 -6.444754
v 31.868481 0.315447 -6.044754
v 31.868481 0.715447 -6.044754
v 31.868481 0.315447 -6.444754
v 31.868481 0.715447 -6.444754
vt 0.0000 0.0000
vt 1.0000 0.0000
vt 1.0000 1.0000
vt 0.0000 1.0000
vt 0.0000 0.0000
vt 1.0000 0.0000
vt 1.0000 1.0000
vt 0.0000 1.0000
vt 0.0000 0.0000
vt 1.0000 0.0000
vt 1.0000 1.0000
vt 0.0000 1.0000
vt 0.0000 0.0000
vt 1.0000 0.0000
vt 1.0000 1.0000
vt 0.0000 1.0000
vt 0.0000 0.0000
vt 1.0000 0.0000
vt 1.0000 1.0000
vt 0.0000 1.0000
vn -1.0000 0.0000 0.0000
vn 0.0000 0.0000 -1.0000
vn 1.0000 0.0000 0.0000
vn 0.0000 0.0000 1.0000
vn 0.0000 -1.0000 0.0000
vn 0.0000 1.0000 0.0000
usemtl None
s off
f 2/1/1 4/2/1 3/3/1 1/4/1
f 4/5/2 8/6/2 7/7/2 3/8/2
f 8/9/3 6/10/3 5/11/3 7/12/3
f 6/13/4 2/14/4 1/15/4 5/16/4
f 1/17/5 3/18/5 7/7/5 5/16/5
f 6/13/6 8/6/6 4/19/6 2/20/6
o Cube.001
v -24.426472 0.315448 -4.673436
v -24.426472 0.715448 -4.673436
v -24.426472 0.315448 -5.073435
v -24.426472 0.715448 -5.073435
v -24.026470 0.315448 -4.673436
v -24.026470 0.715448 -4.673436
v -24.026470 0.315448 -5.073435
v -24.026470 0.715448 -5.073435
vt 0.0000 0.0000
vt 1.0000 0.0000
vt 1.0000 1.0000
vt 0.0000 1.0000
vt 0.0000 0.0000
vt 1.0000 0.0000
vt 1.0000 1.0000
vt 0.0000 1.0000
vt 0.0000 0.0000
vt 1.0000 0.0000
vt 1.0000 1.0000
vt 0.0000 1.0000
vt 0.0000 0.0000
vt 1.0000 0.0000
vt 1.0000 1.0000
vt 0.0000 1.0000
vt 0.0000 0.0000
vt 1.0000 0.0000
vt 1.0000 1.0000
vt 0.0000 1.0000
vn -1.0000 0.0000 0.0000
vn 0.0000 0.0000 -1.0000
vn 1.0000 0.0000 0.0000
vn 0.0000 0.0000 1.0000
vn 0.0000 -1.0000 0.0000
vn 0.0000 1.0000 0.0000
usemtl None
s off
f 10/21/7 12/22/7 11/23/7 9/24/7
f 12/25/8 16/26/8 15/27/8 11/28/8
f 16/29/9 14/30/9 13/31/9 15/32/9
f 14/33/10 10/34/10 9/35/10 13/36/10
f 9/37/11 11/38/11 15/27/11 13/36/11
f 14/33/12 16/26/12 12/39/12 10/40/12
o Cube
v -0.498174 1.969132 1.930474
v -0.498174 2.369133 1.930474
v -0.498174 1.969132 1.530474
v -0.498174 2.369133 1.530474
v -0.098174 1.969132 1.930474
v -0.098174 2.369133 1.930474
v -0.098174 1.969132 1.530474
v -0.098174 2.369133 1.530474
vt 0.0000 0.0000
vt 1.0000 0.0000
vt 1.0000 1.0000
vt 0.0000 1.0000
vt 0.0000 0.0000
vt 1.0000 0.0000
vt 1.0000 1.0000
vt 0.0000 1.0000
vt 0.0000 0.0000
vt 1.0000 0.0000
vt 1.0000 1.0000
vt 0.0000 1.0000
vt 0.0000 0.0000
vt 1.0000 0.0000
vt 1.0000 1.0000
vt 0.0000 1.0000
vt 0.0000 0.0000
vt 1.0000 0.0000
vt 1.0000 1.0000
vt 0.0000 1.0000
vn -1.0000 0.0000 0.0000
vn 0.0000 0.0000 -1.0000
vn 1.0000 0.0000 0.0000
vn 0.0000 0.0000 1.0000
vn 0.0000 -1.0000 0.0000
vn 0.0000 1.0000 0.0000
usemtl None
s off
f 18/41/13 20/42/13 19/43/13 17/44/13
f 20/45/14 24/46/14 23/47/14 19/48/14
f 24/49/15 22/50/15 21/51/15 23/52/15
f 22/53/16 18/54/16 17/55/16 21/56/16
f 17/57/17 19/58/17 23/47/17 21/56/17
f 22/53/18 24/46/18 20/59/18 18/60/18
o Plane
v 0.701826 1.726772 8.040003
v 0.701826 1.525061 8.041005
v 0.701826 -0.000413 12.759966
v 0.701826 -0.080483 12.737232
v -1.298174 1.726772 8.040003
v -1.298174 1.525061 8.041005
v -1.298174 -0.000413 12.759966
v -1.298174 -0.080483 12.737232
v -8.169908 1.520417 8.040573
v -8.169908 1.730886 8.040573
v -8.169908 1.520417 -0.663507
v -8.169908 1.730886 -0.663507
v 3.027474 1.520417 8.040573
v 3.027474 1.730886 8.040573
v 3.027474 1.520417 -0.663507
v 3.027474 1.730886 -0.663507
v -8.200000 0.000000 8.200000
v 8.200000 0.000000 8.200000
v -8.200000 0.000000 -8.200000
v 8.200000 0.000000 -8.200000
v -1.752237 0.000000 8.200000
v -1.752237 0.000000 -8.200000
v 4.100000 0.000000 8.200000
v 4.100000 0.000000 -8.200000
v -0.786062 0.000000 -12.237763
v 3.133824 0.000000 -12.237763
v -2.857069 0.000000 -16.465988
v 5.204831 0.000000 -16.465988
v -8.200000 0.000000 -5.066250
v 8.200000 0.000000 -5.066250
v -1.752237 0.000000 -5.066250
v 4.100000 0.000000 -5.066250
v -8.200000 0.000000 -0.794836
v 8.200000 0.000000 -0.794836
v -1.752237 0.000000 -0.794836
v 4.100000 0.000000 -0.794836
v 16.046976 0.000000 -5.066250
v 16.046976 0.000000 -0.794836
v -2.857069 0.000000 -22.865463
v 5.204831 0.000000 -22.865463
v 12.823254 0.000000 -16.465988
v 12.823254 0.000000 -22.865463
v 19.346373 0.000000 -15.030692
v 23.136847 0.000000 -20.186813
v 26.444038 0.000000 -5.412053
v 32.723530 0.000000 -6.645452
v 26.851433 0.000000 -0.030584
v 31.782845 0.000000 4.047950
v -5.266907 0.000000 16.618357
v 1.180856 0.000000 16.618357
v 7.033093 0.000000 16.618357
v 2.155069 0.000000 23.792501
v 8.284910 0.000000 25.065884
v 13.267262 0.000000 18.519060
v 14.874846 0.000000 23.808846
v 20.161936 0.000000 21.299786
v -13.647171 0.000000 -4.205261
v -13.647171 0.000000 -1.655825
v -19.170528 0.000000 -6.263002
v -19.170528 0.000000 0.401915
v -25.684280 0.000000 -6.263002
v -25.684280 0.000000 0.401915
v -17.608751 0.000000 12.515206
v -24.122503 0.000000 12.515206
v -13.302354 0.000000 17.570494
v -18.067846 0.000000 22.011106
v -4.541168 0.000000 26.941153
v -9.306660 0.000000 31.381765
v -8.200000 4.069270 8.200000
v 8.200000 4.069270 8.200000
v -8.200000 4.069270 -8.200000
v 8.200000 4.069270 -8.200000
v -1.752237 4.069270 -8.200000
v 4.100000 4.069270 8.200000
v 4.100000 4.069270 -8.200000
v -0.786062 4.069270 -12.237763
v 3.133824 4.069270 -12.237763
v -2.857069 4.069270 -16.465988
v 5.204831 4.069270 -16.465988
v -8.200000 4.069270 -5.066250
v 8.200000 4.069270 -5.066250
v -8.200000 4.069270 -0.794836
v 8.200000 4.069270 -0.794836
v 16.046976 4.069270 -5.066250
v 16.046976 4.069270 -0.794836
v -2.857069 4.069270 -22.865463
v 5.204831 4.069270 -22.865463
v 12.823254 4.069270 -16.465988
v 12.823254 4.069270 -22.865463
v 19.346373 4.069270 -15.030692
v 23.136847 4.069270 -20.186813
v 32.723530 4.069270 -6.645452
v 26.851433 4.069270 -0.030584
v 31.782845 4.069270 4.047950
v -5.266907 4.069270 16.618357
v 7.033093 4.069270 16.618357
v 2.155069 4.069270 23.792501
v 8.284910 4.069270 25.065884
v 13.267262 4.069270 18.519060
v 14.874846 4.069270 23.808846
v 20.161936 4.069270 21.299786
v -13.647171 4.069270 -4.205261
v -13.647171 4.069270 -1.655825
v -19.170528 4.069270 -6.263002
v -19.170528 4.069270 0.401915
v -25.684280 4.069270 -6.263002
v -25.684280 4.069270 0.401915
v -17.608751 4.069270 12.515206
v -24.122503 4.069270 12.515206
v -13.302354 4.069270 17.570494
v -18.067846 4.069270 22.011106
v -4.541168 4.069270 26.941153
v -9.306660 4.069270 31.381765
v 28.486469 0.000000 14.426105
v 28.486469 4.069270 14.426105
v 28.725248 0.000000 9.237027
v 28.725248 4.069270 9.237027
vt 0.4797 0.3654
vt 4.8318 0.3654
vt 4.8318 0.2602
vt 0.4797 0.2602
vt 0.4150 0.3654
vt 6.0137 0.3654
vt 6.0137 0.2602
vt 0.4150 0.2602
vt 0.8318 0.3654
vt -3.5203 0.3654
vt -3.5203 0.2602
vt 0.8318 0.2602
vt 0.0137 0.3654
vt -5.5850 0.3654
vt -5.5850 0.2602
vt 0.0137 0.2602
vt 0.4150 0.4797
vt 0.4150 4.8318
vt 6.0137 4.8318
vt 6.0137 0.4797
vt 0.0137 0.4797
vt 0.0137 4.8318
vt -5.5850 4.8318
vt -5.5850 0.4797
vt 0.5500 0.0331
vt 2.6000 0.0331
vt 2.6000 1.6000
vt 0.5500 1.6000
vt 0.4000 0.0331
vt 3.6239 0.0331
vt 3.6239 1.6000
vt 0.4000 1.6000
vt 0.6239 0.0331
vt 3.5500 0.0331
vt 3.5500 1.6000
vt 0.6239 1.6000
vt 0.6239 0.6000
vt 3.5500 0.6000
vt 3.0669 2.6189
vt 1.1070 2.6189
vt 0.1070 0.6189
vt 2.0669 0.6189
vt 3.1024 2.7330
vt -0.9285 2.7330
vt 0.6239 0.8974
vt 3.5500 0.8974
vt 3.5500 3.0331
vt 0.6239 3.0331
vt 0.4000 0.8974
vt 3.6239 0.8974
vt 3.6239 3.0331
vt 0.4000 3.0331
vt 0.5500 0.8974
vt 2.6000 0.8974
vt 2.6000 3.0331
vt 0.5500 3.0331
vt 0.5500 0.4000
vt 2.6000 0.4000
vt 2.6000 4.8974
vt 0.5500 4.8974
vt 0.4000 0.4000
vt 3.6239 0.4000
vt 3.6239 4.8974
vt 0.4000 4.8974
vt 0.6239 0.4000
vt 3.5500 0.4000
vt 3.5500 4.8974
vt 0.6239 4.8974
vt 0.6000 0.0331
vt 0.6000 -2.1026
vt 4.5235 -2.1026
vt 4.5235 0.0331
vt 0.0715 0.7330
vt 4.1024 0.7330
vt 4.1024 3.9327
vt 0.0715 3.9327
vt 0.1024 0.9327
vt 0.1024 -2.2670
vt 3.9116 -2.2670
vt 3.9116 0.9327
vt 0.9116 0.9327
vt 0.9116 -2.2670
vt 4.1732 -2.9847
vt 6.0684 -0.4066
vt 0.0684 0.5934
vt -1.8268 -1.9847
vt 1.7220 -6.7940
vt 4.8618 -6.1773
vt 0.1732 0.0153
vt -1.4765 -4.9669
vt 3.7220 -4.7940
vt 0.8618 0.8227
vt -2.2780 0.2060
vt -2.0743 -2.4847
vt 0.3914 -4.5240
vt 0.5235 0.8974
vt 5.9257 0.5153
vt 5.7220 3.2060
vt 0.5235 3.0331
vt -2.3761 0.4000
vt -0.9096 -3.8092
vt 2.0165 -3.8092
vt -2.6000 0.4000
vt -1.1335 -3.8092
vt 2.0904 -3.8092
vt 0.0165 0.1908
vt -2.9096 0.1908
vt 0.6425 -4.0329
vt 3.1336 -0.7595
vt 0.9374 0.5956
vt 3.5810 1.8501
vt 0.1336 3.2405
vt 0.6425 0.9671
vt -2.9096 5.1908
vt -2.4225 1.6037
vt 0.9257 0.5153
vt -5.8664 -8.7595
vt -2.4190 -10.1499
vt 1.7432 -6.7131
vt 1.8626 -4.1185
vt 3.3914 -1.5240
vt 0.8665 0.1908
vt 4.5775 -3.3963
vt 4.0904 0.1908
vt 0.1336 0.2405
vt -2.3575 -3.0329
vt 0.9374 -2.4044
vt -2.3236 2.6026
vt -2.3236 1.3279
vt 0.6764 0.3279
vt 0.6764 1.6026
vt -2.0853 2.6315
vt -2.0853 -0.7010
vt 0.9147 0.2990
vt 0.9147 3.6315
vt -2.3421 3.6315
vt -2.3421 0.2990
vt -1.5613 -5.7576
vt 1.6956 -5.7576
vt 0.6956 0.2424
vt -2.5613 0.2424
vt 0.4661 -4.5056
vt 2.8488 -2.2852
vt 0.8488 0.7148
vt -1.5339 -1.5056
vt 2.8467 -6.1909
vt 5.2294 -3.9706
vt -3.1512 -0.2852
vt 1.2294 -4.9706
vt 1.0000 0.0000
vt 1.0000 1.0000
vt 0.0000 1.0000
vt 0.0000 0.0000
vt 1.0000 0.0000
vt 1.0000 1.0000
vt 0.0000 1.0000
vt 0.0000 0.0000
vt 0.0000 0.0000
vt 1.0000 0.0000
vt 1.0000 1.0000
vt 0.0000 1.0000
vt 0.0000 0.0000
vt 1.0000 1.0000
vt 0.0000 0.0000
vt 1.0000 0.0000
vt 1.0000 1.0000
vt 0.0000 1.0000
vt 1.0000 0.0000
vt 0.0000 1.0000
vt 2.9918 -0.0001
vt 7.7604 -0.0001
vt 7.7604 0.9999
vt 2.9918 0.9999
vt -3.3569 -0.0001
vt -5.9637 -0.0001
vt -5.9637 0.9999
vt -3.3569 0.9999
vt -3.3569 -0.0001
vt -4.8565 -0.0001
vt -4.8565 0.9999
vt -3.3569 0.9999
vt 2.3676 -0.0001
vt -0.1626 -0.0001
vt -0.1626 0.9999
vt 2.3676 0.9999
vt -1.6059 -0.0001
vt -3.8865 -0.0001
vt -3.8865 0.9999
vt -1.6059 0.9999
vt 2.9918 -0.0001
vt 4.4915 -0.0001
vt 4.4915 0.9999
vt 2.9918 0.9999
vt 1.8847 -0.0001
vt 4.4915 -0.0001
vt 4.4915 0.9999
vt 1.8847 0.9999
vt -3.3569 -0.0001
vt -0.2712 -0.0001
vt -0.2712 0.9999
vt -3.3569 0.9999
vt 2.3795 -0.0001
vt -4.1008 -0.0001
vt -4.1008 0.9999
vt 2.3795 0.9999
vt -3.3569 -0.0001
vt 0.3984 -0.0001
vt 0.3984 0.9999
vt -3.3569 0.9999
vt 3.9331 -0.0001
vt 6.9165 -0.0001
vt 6.9165 0.9999
vt 3.9331 0.9999
vt 1.2460 -0.0001
vt 5.7304 -0.0001
vt 5.7304 0.9999
vt 1.2460 0.9999
vt 1.8847 -0.0001
vt -0.7585 -0.0001
vt -0.7585 0.9999
vt 1.8847 0.9999
vt 0.3984 -0.0001
vt -3.3569 -0.0001
vt -3.3569 0.9999
vt 0.3984 0.9999
vt 2.0497 -0.0001
vt 5.8952 -0.0001
vt 5.8952 0.9999
vt 2.0497 0.9999
vt -0.7585 -0.0001
vt -0.7585 0.9999
vt -0.8000 -0.0001
vt 3.0581 -0.0001
vt 3.0581 0.9999
vt -0.8000 0.9999
vt 1.5987 -0.0001
vt 1.5987 0.9999
vt 0.3750 -0.0001
vt 3.5645 -0.0001
vt 3.5645 0.9999
vt 0.3750 0.9999
vt 0.5989 -0.0001
vt 3.6614 -0.0001
vt 3.6614 0.9999
vt 0.5989 0.9999
vt -3.3162 -0.0001
vt -6.2497 -0.0001
vt -6.2497 0.9999
vt -3.3162 0.9999
vt 3.7476 -0.0001
vt -1.3699 -0.0001
vt -1.3699 0.9999
vt 3.7476 0.9999
vt 2.5294 -0.0001
vt 4.4915 -0.0001
vt 4.4915 0.9999
vt 2.5294 0.9999
vt 3.9726 -0.0001
vt 7.0898 -0.0001
vt 7.0898 0.9999
vt 3.9726 0.9999
vt -2.2794 -0.0001
vt -7.4500 -0.0001
vt -7.4500 0.9999
vt -2.2794 0.9999
vt 6.7040 -0.0001
vt 6.7040 0.9999
vt -0.4468 -0.0001
vt 8.4303 -0.0001
vt 8.4303 0.9999
vt -0.4468 0.9999
vt 0.9477 -0.0001
vt -3.3569 -0.0001
vt -3.3569 0.9999
vt 0.9477 0.9999
vt 0.3750 -0.0001
vt -5.4219 -0.0001
vt -5.4219 0.9999
vt 0.3750 0.9999
vt -3.3569 -0.0001
vt -1.4246 -0.0001
vt -1.4246 0.9999
vt -3.3569 0.9999
vt -1.1444 -0.0001
vt -4.7902 -0.0001
vt -4.7902 0.9999
vt -1.1444 0.9999
vt -1.4970 -0.0001
vt -5.4807 -0.0001
vt -5.4807 0.9999
vt -1.4970 0.9999
vt 2.4264 -0.0001
vt 8.2234 -0.0001
vt 8.2234 0.9999
vt 2.4264 0.9999
vt -1.4246 -0.0001
vt -3.3569 -0.0001
vt -3.3569 0.9999
vt -1.4246 0.9999
vt -3.3569 -0.0001
vt -7.3855 -0.0001
vt -7.3855 0.9999
vt -3.3569 0.9999
vt -1.1444 -0.0001
vt 3.7913 -0.0001
vt 3.7913 0.9999
vt -1.1444 0.9999
vt -3.3569 -0.0001
vt 0.9477 -0.0001
vt 0.9477 0.9999
vt -3.3569 0.9999
vt 2.4264 -0.0001
vt 0.0072 -0.0001
vt 0.0072 0.9999
vt 2.4264 0.9999
vt 1.9773 -0.0001
vt 1.9773 0.9999
vt -5.3190 -0.0001
vt -5.3190 0.9999
vt 0.4628 -0.0001
vt 4.4915 -0.0001
vt 4.4915 0.9999
vt 0.4628 0.9999
vt -2.1179 -0.0001
vt -2.1179 0.9999
vt 0.5989 -0.0001
vt 0.5989 0.9999
vt 3.9952 -0.0001
vt 1.5119 -0.0001
vt 1.5119 0.9999
vt 3.9952 0.9999
vt -3.8531 -0.0001
vt -3.8531 0.9999
vn -1.0000 0.0000 0.0000
vn 0.0000 0.0000 -1.0000
vn 1.0000 0.0000 0.0000
vn 0.0000 0.0000 1.0000
vn 0.0000 -1.0000 0.0000
vn 0.0000 1.0000 0.0000
vn 0.0000 0.9391 0.3436
vn 0.0000 -0.9462 -0.3235
vn 0.0000 -0.2731 0.9620
vn 0.0000 -0.0050 -1.0000
vn 0.9493 0.0000 0.3143
vn 0.1561 0.0000 -0.9877
vn -0.4287 0.0000 -0.9034
vn -0.6817 0.0000 -0.7316
vn 0.1561 0.0000 0.9877
vn -0.8162 0.0000 0.5778
vn -0.2916 0.0000 0.9565
vn 0.7305 0.0000 -0.6830
vn -0.3491 0.0000 -0.9371
vn 0.1177 0.0000 0.9931
vn -0.3491 0.0000 0.9371
vn -0.4255 0.0000 -0.9049
vn 0.2034 0.0000 -0.9791
vn -0.9962 0.0000 -0.0876
vn -0.1874 0.0000 -0.9823
vn 0.0706 0.0000 -0.9975
vn 0.8068 0.0000 0.5908
vn -0.9918 0.0000 0.1279
vn 0.9725 0.0000 0.2327
vn -0.6367 0.0000 -0.7711
vn 0.9918 0.0000 -0.1279
vn -0.9725 0.0000 0.2327
vn -0.9443 0.0000 0.3290
vn -0.2514 0.0000 0.9679
vn -0.7612 0.0000 0.6485
vn 0.8981 0.0000 -0.4399
vn 0.2149 0.0000 -0.9766
vn 0.9443 0.0000 -0.3290
vn 0.8432 0.0000 -0.5376
vn -0.8981 0.0000 -0.4399
vn -0.9989 0.0000 -0.0460
vn -0.8616 0.0000 -0.5077
usemtl Material.001
s off
f 34/61/19 36/62/19 35/63/19 33/64/19
f 36/65/20 40/66/20 39/67/20 35/68/20
f 40/69/21 38/70/21 37/71/21 39/72/21
f 38/73/22 34/74/22 33/75/22 37/76/22
f 33/77/23 35/78/23 39/79/23 37/80/23
f 38/81/24 40/82/24 36/83/24 34/84/24
f 56/85/24 54/86/24 44/87/24 48/88/24
f 53/89/24 55/90/24 46/91/24 43/92/24
f 55/93/24 56/94/24 48/95/24 46/96/24
f 46/97/24 48/98/24 50/99/24 49/100/24
f 49/101/24 50/102/24 52/103/24 51/104/24
f 59/105/24 60/106/24 56/107/24 55/108/24
f 57/109/24 59/110/24 55/111/24 53/112/24
f 60/113/24 58/114/24 54/115/24 56/116/24
f 47/117/24 42/118/24 58/119/24 60/120/24
f 41/121/24 45/122/24 59/123/24 57/124/24
f 45/125/24 47/126/24 60/127/24 59/128/24
f 54/129/24 58/130/24 62/131/24 61/132/24
f 51/133/24 52/134/24 64/135/24 63/136/24
f 64/137/24 52/138/24 65/139/24 66/140/24
f 66/141/24 65/142/24 67/143/24 68/144/24
f 68/145/24 67/146/24 69/147/24 70/148/24
f 67/149/24 61/150/24 69/151/24
f 70/152/24 69/153/24 71/154/24 72/155/24
f 62/156/24 71/157/24 69/158/24 61/159/24
f 47/117/24 45/160/24 74/161/24 75/162/24
f 45/125/24 41/163/24 73/164/24 74/165/24
f 75/166/24 74/167/24 77/168/24 78/169/24
f 79/170/24 80/171/24 78/172/24
f 77/173/24 74/174/24 76/175/24
f 71/176/24 78/177/24 80/178/24 138/179/24 140/180/24 72/181/24
f 73/182/24 76/183/24 74/184/24
f 78/185/24 77/186/24 79/187/24
f 57/109/24 53/112/24 81/188/24 82/189/24
f 82/190/24 81/191/24 83/192/24 84/193/24
f 84/194/24 83/195/24 85/196/24 86/197/24
f 84/194/24 86/197/24 88/198/24 87/199/24
f 87/200/24 88/201/24 90/202/24 89/203/24
f 89/204/24 90/205/24 92/206/24 91/207/24
f 73/182/24 89/208/24 91/209/24 76/183/24
usemtl Material.001_ramp.png
f 27/210/25 25/211/25 29/212/25 31/213/25
f 32/214/26 30/215/26 26/216/26 28/217/26
f 27/218/27 31/219/27 32/220/27 28/221/27
f 25/222/21 27/210/21 28/223/21 26/216/21
f 29/224/28 25/225/28 26/226/28 30/227/28
f 31/213/19 29/228/19 30/215/19 32/229/19
usemtl Material.002
f 61/230/29 67/231/29 114/232/29 108/233/29
f 57/234/30 82/235/30 127/236/30 106/237/30
f 44/238/19 54/239/19 105/240/19 96/241/19
f 80/242/31 79/243/31 124/244/31 125/245/31
f 91/246/32 92/247/32 137/248/32 136/249/32
f 53/250/21 43/251/21 95/252/21 104/253/21
f 81/254/33 53/255/33 104/256/33 126/257/33
f 43/258/22 46/259/22 97/260/22 95/261/22
f 68/262/34 70/263/34 116/264/34 115/265/34
f 54/266/22 61/267/22 108/268/22 105/269/22
f 75/270/35 78/271/35 123/272/35 120/273/35
f 92/274/36 90/275/36 135/276/36 137/277/36
f 82/278/37 84/279/37 129/280/37 127/281/37
f 62/282/20 58/283/20 107/284/20 109/285/20
f 89/286/38 73/287/38 119/288/38 134/289/38
f 83/290/39 81/254/39 126/257/39 128/291/39
f 63/292/22 64/293/22 111/294/22 110/295/22
f 76/296/40 91/246/40 136/249/40 121/297/40
f 86/298/21 85/299/21 130/300/21 131/301/21
f 51/302/21 63/303/21 110/304/21 102/305/21
f 77/306/41 76/307/41 121/308/41 122/309/41
f 70/310/42 72/311/42 118/312/42 116/313/42
f 48/314/22 44/315/22 96/316/22 99/317/22
f 85/318/22 83/319/22 128/320/22 130/321/22
f 79/243/43 77/306/43 122/309/43 124/244/43
f 71/322/44 62/323/44 109/324/44 117/325/44
f 64/293/22 66/326/22 113/327/22 111/294/22
f 78/328/45 71/329/45 117/330/45 123/331/45
f 58/332/19 42/333/19 94/334/19 107/335/19
f 84/336/46 87/337/46 132/338/46 129/339/46
f 46/340/47 49/341/47 100/342/47 97/343/47
f 65/344/20 52/345/20 103/346/20 112/347/20
f 138/348/48 80/349/48 125/350/48 139/351/48
f 88/352/49 86/353/49 131/354/49 133/355/49
f 50/356/50 48/357/50 99/358/50 101/359/50
f 47/360/51 75/361/51 120/362/51 98/363/51
f 66/364/52 68/365/52 115/366/52 113/367/52
f 41/368/21 57/369/21 106/370/21 93/371/21
f 87/372/53 89/373/53 134/374/53 132/375/53
f 49/341/54 51/302/54 102/305/54 100/342/54
f 67/376/55 65/344/55 112/347/55 114/377/55
f 42/333/20 47/378/20 98/379/20 94/334/20
f 73/380/56 41/381/56 93/382/56 119/383/56
f 90/384/57 88/352/57 133/355/57 135/385/57
f 52/386/58 50/356/58 101/359/58 103/387/58
f 140/388/59 138/389/59 139/390/59 141/391/59
f 72/311/60 140/392/60 141/393/60 118/312/60
